<?xml version="1.0" encoding="UTF-8"?>
<svg version="1.1" viewBox="0 0 2048 843" width="120" height="40" xmlns="http://www.w3.org/2000/svg">
<path transform="translate(0)" d="m0 0h2048v843h-2048z" fill="#2B333E"/>
<path transform="translate(475,221)" d="m0 0h10l1 280 1 77v68l-10 4-36 12-91 30-43 14-78 26-40 13-14 5h-2l-2-38-3-69-2-58-2-42-3-81-5-120-2-45-1-44 1-1 105-10h4v16l-1 17-15 1-6 3-5 9 1 10 6 7 4 2h11l6-4 4-6 2-10 3-47 130-12h11l2 7 2 14v11l-9-2-8 3-4 4-1 3v11l6 7 4 2h7l6-3 5-7 3-11v-15l-2-17v-10z" fill="#2B333E"/>
<path transform="translate(249,90)" d="m0 0h21l13 4 10 6 10 9 4-2 7-6 12-6 14-3 13 1 10 3 12 7 12 11 10 14 9 17 9 27 5 24 2 10 8 1 56 2 10 3 1 25 1 182v232l-3 3-47 16-177 58-49 16-50 16h-8l-24-14-20-12-21-13-20-12-14-9-1-2v-321l1-153 2-2 31-2 82-5 6-36 6-23 6-15 8-16 8-11 9-10 11-8 10-5zm226 131-50 4v10l2 17v15l-4 13-5 6-5 2h-7l-6-4-4-5v-11l3-5 6-4 6-1 7 2v-11l-3-19-1-2h-11l-85 8-45 4-3 47-2 10-4 6-6 4h-11l-6-4-4-5-1-10 5-9 6-3 15-1 1-17v-16l-26 2-83 8-1 2 1 43 4 93 5 123 2 55 2 39 2 64 3 65 1 14 11-3 41-14 43-14 78-26 104-34 36-12 1-1v-68l-1-77-1-280z" fill="#FEFCFC"/>
<path transform="translate(75,233)" d="m0 0 10 1 30 6 13 3v416l-8 5-25 14-20 12h-2v-98l1-125z" fill="#2B333E"/>
<path transform="translate(984,354)" d="m0 0h15l17 4 15 8 11 9 7 8 8 14 4 11 2 13-1 19-4 14-6 12-9 11-7 7-14 9-9 4-17 3-15-1-13-3-13-7-13-11-9-11-8-16-2-10-1-10v-13l3-15 8-16 4-6 9-10 15-10 16-6z" fill="#2B333E"/>
<path transform="translate(1411,354)" d="m0 0h15l14 3 12 5 11 7 10 9 6 8 9 19 2 23-2 21-2 2-4 11-8 11-7 8-9 7-14 8-14 3-11 1-21-3-14-7-11-9-7-7-7-10-5-10-4-15v-24l3-13 8-16 6-8 7-7 13-9 11-5z" fill="#2B333E"/>
<path transform="translate(747,337)" d="m0 0h70l12 2 13 5 12 9 8 10 6 14 2 8v22l-6 16-7 10-9 8-13 6h-3l9 15 10 14 14 20 8 11 6 8-1 3h-21l-7-10-11-16-12-17-13-19-2-3-6-1h-37v65l-1 1-19 1-2-1-1-58z" fill="#FEFCFC"/>
<path transform="translate(1112,337)" d="m0 0h20l3 2 15 33 9 19 8 16 19 39 13 27 6 13v2l3-3 16-33 11-23 14-30 8-17 8-16 13-27 2-2h20l1 66v114l-1 1h-21l-1-1v-38l1-92h-2l-2 5-14 29-15 31-13 28-15 31-6 7-8 1-7-3-10-19-18-38-8-18-7-15-8-17-12-22v130l-1 1-20 1-2-3v-178z" fill="#FEFCFC"/>
<path transform="translate(602,336)" d="m0 0 68 1 14 3 10 4 11 8 8 9 7 14 2 10v21l-3 11-6 11-7 8-9 7-10 5-11 3-13 1h-41v65l-1 1h-21v-178z" fill="#FEFCFC"/>
<path transform="translate(1408,334)" d="m0 0h23l18 4 16 7 14 10 12 12 9 14 5 10 5 14 2 13v19l-3 17-8 18-9 13-4 5-8 7-10 7-10 6-14 6-13 3h-26l-11-2-20-8-13-9-12-11-8-10-9-17-5-16-1-8v-17l2-15 5-17 7-13 9-11 7-8 13-10 19-9zm3 20-16 4-13 7-11 9-7 7-8 14-5 14-1 6v24l4 15 6 12 9 11 7 7 10 7 12 6 21 3 17-2 10-3 14-8 11-10 9-12 5-10 1-5 2-1 2-21-2-23-9-19-9-11-11-9-16-8-11-3-6-1z" fill="#FEFCFC"/>
<path transform="translate(981,334)" d="m0 0h22l18 4 12 5 12 7 13 12 8 9 8 13 5 12 4 12 1 5v28l-3 12-5 13-6 11-7 9-12 12-15 10-10 5-15 5-6 1h-26l-14-3-18-8-13-9-15-15-7-10-8-18-3-14-1-9 1-21 3-14 8-18 8-12 9-10 11-9 15-8 11-4zm3 20-10 2-13 5-12 8-10 9-7 10-7 15-3 15v13l2 17 6 14 10 14 12 11 14 8 9 3 14 2 14-1 13-3 13-7 10-8 7-7 7-10 6-12 3-12 1-19-2-13-5-13-7-12-10-11-10-7-16-8-14-3z" fill="#FEFCFC"/>
<path transform="translate(1617,334)" d="m0 0h23l17 4 18 8 11 8-1 4-7 8-2 2-7-1-10-6-16-5-6-1h-18l-15 4-12 6-9 7-7 6-7 10-6 13-3 10-1 10 1 22 4 14 4 6 4 7 11 12 12 9 10 5 18 3h9l18-3 16-7 10-9 7-10 5-13 4-12h-52l-1-1v-16l1-1h69l2 1v10l-3 20-5 15-8 14-11 12-12 9-15 7-14 4-8 1h-11l-17-2-19-7-12-7-9-7-11-11-6-9-8-15-5-15-1-9v-18l2-15 5-15 8-15 8-10 11-11 13-9 16-7z" fill="#FEFCFC"/>
<path transform="translate(1761,336)" d="m0 0h81l2 2v18l-1 1h-83v60h64v18l-1 1h-63v62h84l1 1v19l-2 1h-103l-1-1v-181z" fill="#FEFCFC"/>
<path transform="translate(254,99)" d="m0 0h13l13 5 11 8 5 5-2 5-6 10-8 16-6 16-5 23-4 23-1 1-64 4h-8l1-17 5-27 5-16 9-21 8-12 11-12 11-7z" fill="#2B333E"/>
<path transform="translate(135,248)" d="m0 0 4 2 3 3 1 5 4 88 1 37 4 83 6 156 4 80v26l-2 1-8-24-9-23-8-19z" fill="#2B333E"/>
<path transform="translate(334,103)" d="m0 0h17l13 5 9 7 10 10 9 14 7 16 6 18 4 18 1 10-62 4h-9l-7-33-7-24-8-18-7-11 2-4 8-6 10-5z" fill="#2B333E"/>
<path transform="translate(1897,336)" d="m0 0h88l4 1v19h-49v162l-20 1-2-1v-162h-50v-18l1-1z" fill="#FEFCFC"/>
<path transform="translate(769,356)" d="m0 0 40 1 16 2 13 7 5 6 4 8 2 6v19l-4 9-6 8-9 7-11 3-1 1-11 1h-36l-2-1z" fill="#2B333E"/>
<path transform="translate(622,356)" d="m0 0 40 1 16 2 11 6 5 4 5 9 2 10v15l-3 10-6 8-7 7-15 5h-49v-20z" fill="#2B333E"/>
<path transform="translate(302,127)" d="m0 0 3 1 8 15 7 19 6 24 2 12v8l-34 2h-19l3-19 4-18 5-16 9-19z" fill="#2B333E"/>
<path transform="translate(130,666)" d="m0 0 2 2 5 14 8 21 6 15 9 22 1 6-5-2-20-11-21-13-20-12-18-12-1-2 22-11 23-13z" fill="#2B333E"/>
<path transform="translate(252,220)" d="m0 0h12v10l-1 2-72 8-39 4h-6l-11-7-12-5-10-3v-1l44-2 82-5z" fill="#2B333E"/>
<path transform="translate(397,210)" d="m0 0h12l4 4v3l-25 3-83 8-21 2h-10v-11l2-1 81-5z" fill="#2B333E"/>
<path transform="translate(249,281)" d="m0 0h10l-1 4-7 2-1 2v6l6 1 7-2-2 5-5 3-7-1-7-7v-6l5-6z" fill="#2B333E"/>
<path transform="translate(410,265)" d="m0 0 4 1v3l-8 3 1 4 10 1-2 5-3 2h-5l-6-6v-9l3-3z" fill="#2B333E"/>
</svg>
